# xmcd CD database file
#
# Track frame offsets:
#	150
#	3272
#	17829
#	39513
#	43113
#	57224
#	60243
#	84375
#	104982
#	108744
#	124414
#	127768
#	150698
#	171311
#	175608
#
# Disc length: 2569 seconds
#
# Revision: 1
# Processed by: cddbd v1.5.2PL0 Copyright (c) Steve Scherf et al.
# Submitted via: CDex 1.86
#
DISCID=c10a070f
DTITLE=Robert Earl Keen - Live Dinner Reunion Disc 1
DYEAR=2016
DGENRE=Country
TTITLE0=Cody Canada - Tells It Like It Is
TTITLE1=Feelin' Good Again
TTITLE2=Gringo Honeymoon
TTITLE3=State Of Thanks Address
TTITLE4=I Gotta Go
TTITLE5=Lucky Weather
TTITLE6=Intro Lyle Lovett and This Old Porch
TTITLE7=T For Texas (with Lyle Lovett)
TTITLE8=Write A Drinking Song
TTITLE9=Hot Corn, Cold Corn
TTITLE10=Cory's Story
TTITLE11=I'll Go On Downtown (with Cory Morrow)
TTITLE12=Ding Dong Daddy From Dumas (with Mark Patterson and Bryan Duckworth)
TTITLE13=Bruce Robison On The Money
TTITLE14=No Kinda Dancer (with Bruce Robison)
EXTD=YEAR: 2016
EXTT0=
EXTT1=
EXTT2=
EXTT3=
EXTT4=
EXTT5=
EXTT6=
EXTT7=
EXTT8=
EXTT9=
EXTT10=
EXTT11=
EXTT12=
EXTT13=
EXTT14=
PLAYORDER=
